<svg xmlns="http://www.w3.org/2000/svg" width="1200" height="620" viewBox="0 0 1200 620" role="img" aria-label="PrescottClub. Product meets code. AI 产品经理与 AI 应用开发工程师。想法可以野，系统得稳。">
    <defs><pattern id="paper" width="32" height="32" patternUnits="userSpaceOnUse"><circle cx="2" cy="2" r=".8" fill="#c9c8bd"/></pattern>
    <style>text{font-family:Arial,Helvetica,"PingFang SC",sans-serif}.mono{font-family:Menlo,Consolas,monospace}
    .float{animation:float 5s ease-in-out infinite}.eyes{animation:eyes 6s ease-in-out infinite}.signal{stroke-dasharray:5 13;animation:signal 3s linear infinite}.blink{animation:blink 3.4s ease-in-out infinite}
    @keyframes float{50%{transform:translateY(-8px)}}@keyframes eyes{35%,65%{transform:translateX(7px)}}@keyframes signal{to{stroke-dashoffset:-36}}@keyframes blink{50%{opacity:.25}}
    @media(prefers-reduced-motion:reduce){.float,.eyes,.signal,.blink{animation:none}}
    </style></defs>
<rect width="1200" height="620" rx="14" fill="#f7f5eb"/><rect width="1200" height="620" rx="14" fill="url(#paper)"/>
<path d="M32 72H1168" stroke="#20211f" stroke-width="2"/>
<text x="34" y="45" class="mono" font-size="21" font-weight="700" fill="#20211f">PRESCOTTCLUB /</text>
<text x="773" y="45" class="mono" font-size="16" fill="#20211f">PRODUCT × CODE × A LITTLE CHAOS</text>
<text x="28" y="199" font-size="116" font-weight="900" letter-spacing="-7" fill="#3157ee">PRODUCT</text>
<text x="32" y="302" font-size="116" font-weight="900" letter-spacing="-7" fill="#20211f">MEETS</text>
<text x="27" y="405" font-size="116" font-weight="900" letter-spacing="-7" fill="#3157ee">CODE.</text>
<path d="M33 432q254 -27 531 0" fill="none" stroke="#20211f" stroke-width="3" stroke-linecap="round"/>
<text x="36" y="479" font-size="25" font-weight="800" fill="#20211f">AI 产品经理 &amp; AI 应用开发工程师</text>
<text x="36" y="520" font-size="22" fill="#20211f">想法可以野，系统得稳。</text>
<g transform="translate(708 126) rotate(5 210 178)">
<rect x="10" y="12" width="414" height="344" rx="12" fill="#20211f"/>
<rect width="414" height="344" rx="12" fill="#f7f5eb" stroke="#20211f" stroke-width="3"/>
<rect width="414" height="42" rx="12" fill="#3157ee"/><path d="M0 42H414" stroke="#20211f" stroke-width="3"/>
<circle cx="22" cy="21" r="5" fill="#f7f5eb"/><circle cx="41" cy="21" r="5" fill="#ddf76a"/><circle cx="60" cy="21" r="5" fill="#f5aacb"/>
<text x="91" y="27" class="mono" font-size="15" fill="#f7f5eb">builder.runtime</text>
<text x="370" y="28" class="mono" font-size="23" fill="#f7f5eb">×</text>
<path d="M22 280H389M72 63V312M338 63V312" stroke="#deddd4"/>
<path class="signal" d="M30 172H101M283 172H385" stroke="#3157ee" stroke-width="4"/>
<g class="float"><g transform="translate(110 48) scale(0.93)">
    <path d="M36 167l-16 41M164 167l16 41M69 196v31M131 196v31" stroke="#20211f" stroke-width="9" stroke-linecap="round"/>
    <path d="M65 39Q100 10 135 39" fill="none" stroke="#20211f" stroke-width="4"/><circle cx="100" cy="19" r="8" fill="#f5aacb" stroke="#20211f" stroke-width="3"/>
    <rect x="28" y="42" width="144" height="157" rx="43" fill="#ddf76a" stroke="#20211f" stroke-width="4"/>
    <rect x="40" y="66" width="120" height="66" rx="24" fill="#20211f"/>
    <g class="eyes"><rect x="61" y="84" width="14" height="26" rx="7" fill="#f7f5eb"/><rect x="115" y="84" width="14" height="26" rx="7" fill="#f7f5eb"/></g>
    <path d="M74 156q26 25 52 0" fill="none" stroke="#20211f" stroke-width="4" stroke-linecap="round"/>
    <path d="M14 90H28M172 90H186" stroke="#20211f" stroke-width="9" stroke-linecap="round"/>
    </g></g>
<rect x="19" y="295" width="376" height="32" rx="4" fill="#20211f"/>
<text x="33" y="317" class="mono" font-size="15" fill="#ddf76a">$ turn curiosity into working things</text>
</g>
<g transform="translate(942 81) rotate(12)">
<path d="M0 0H183V66H0Z" fill="#ddf76a" stroke="#20211f" stroke-width="3"/>
<text x="15" y="28" class="mono" font-size="19" font-weight="700" fill="#20211f">IDEA INSIDE.</text>
<text x="15" y="52" class="mono" font-size="19" font-weight="700" fill="#20211f">CODE INCLUDED.</text>
</g>
<g transform="translate(630 351) rotate(-11)">
<rect width="183" height="69" fill="#f5aacb" stroke="#20211f" stroke-width="3"/>
<text x="21" y="44" font-size="27" font-weight="900" fill="#20211f">0 → 1 → ∞</text>
</g>
<g transform="translate(1029 483) rotate(-10)">
<circle r="58" fill="#f5aacb" stroke="#20211f" stroke-width="3"/>
<path d="M-29 4H26M4 -20L28 4L4 28" fill="none" stroke="#20211f" stroke-width="9" stroke-linecap="round" stroke-linejoin="round"/>
</g>
<path d="M765 505q48 43 91 1t87 -10" fill="none" stroke="#3157ee" stroke-width="4" stroke-linecap="round"/>
<rect y="566" width="1200" height="54" fill="#20211f"/>
<text x="31" y="600" class="mono" font-size="19" font-weight="700" fill="#ddf76a">THINK IN PRODUCTS.</text>
<text x="413" y="600" class="mono" font-size="19" font-weight="700" fill="#f7f5eb">BUILD IN SYSTEMS.</text>
<text x="824" y="600" class="mono" font-size="19" font-weight="700" fill="#f5aacb">KEEP IT INTERESTING.</text>
</svg>